<?xml version="1.0" standalone="no"?>
<!DOCTYPE svg PUBLIC "-//W3C//DTD SVG 20010904//EN"
 "http://www.w3.org/TR/2001/REC-SVG-20010904/DTD/svg10.dtd">
<svg version="1.0" xmlns="http://www.w3.org/2000/svg"
 width="2509.000000pt" height="2509.000000pt" viewBox="0 0 2509.000000 2509.000000"
 preserveAspectRatio="xMidYMid meet">

<g transform="translate(0.000000,2509.000000) scale(0.100000,-0.100000)"
fill="#828282" stroke="none">
<path d="M2530 19565 l0 -725 -235 0 -235 0 0 -1430 0 -1430 235 0 235 0 0
1429 0 1429 208 4 c114 3 214 8 223 12 14 6 17 39 22 231 3 124 8 229 12 235
4 6 93 10 245 10 l240 0 2 -242 3 -243 241 -3 241 -2 6 -233 c4 -127 7 -339 7
-469 l0 -238 43 -1 c102 -1 397 -16 401 -20 2 -2 10 -107 16 -234 6 -126 14
-232 16 -234 2 -2 109 -7 239 -10 133 -4 239 -11 245 -17 5 -5 11 -101 12
-229 l3 -220 227 -3 228 -2 2 -243 3 -242 233 -3 232 -2 0 -230 0 -230 970 0
970 0 0 228 0 229 623 6 c342 4 764 7 938 7 241 0 319 3 327 13 5 7 12 107 14
228 3 119 8 221 12 228 5 8 720 11 2815 11 l2808 0 7 -52 c3 -29 6 -132 6
-229 0 -129 3 -179 13 -186 10 -9 1090 -23 1740 -23 l177 0 0 -230 0 -230 955
0 955 0 0 230 0 230 233 2 232 3 3 242 2 243 243 2 242 3 3 227 2 227 53 5
c28 3 132 7 230 9 98 3 180 7 183 9 2 3 9 106 15 229 5 123 12 229 14 236 3 8
64 12 222 13 120 0 221 4 225 8 4 4 12 156 18 337 6 182 14 392 17 467 l6 138
226 2 226 3 3 243 2 242 243 -2 242 -3 5 -240 5 -240 233 -3 232 -2 0 -1430
c0 -1355 1 -1430 18 -1430 9 -1 101 0 204 0 102 0 198 -2 212 -6 l25 -6 4
-146 c5 -174 26 -1873 30 -2382 l2 -355 243 -3 242 -2 0 -230 0 -230 230 0
230 0 2 -242 3 -243 230 -5 230 -5 3 -242 2 -243 243 -2 242 -3 0 -230 0 -230
-242 -3 -243 -2 0 -1200 0 -1200 -232 -2 -233 -3 -3 -472 -2 -473 -228 -2
-227 -3 -6 -60 c-4 -33 -7 -248 -8 -477 -1 -402 -2 -418 -20 -428 -12 -6 -102
-10 -223 -10 -148 0 -209 -3 -221 -12 -14 -11 -18 -51 -27 -303 -5 -159 -13
-370 -17 -467 l-6 -178 -229 0 -228 0 0 -480 0 -480 -245 0 -245 0 0 -245 0
-245 -232 -2 -233 -3 -3 -227 -2 -228 -228 -2 -227 -3 -3 -242 -2 -243 -243
-2 -242 -3 -3 -232 -2 -233 -245 0 -245 0 0 -245 0 -245 -480 0 -480 0 0 -230
0 -230 -477 -2 -478 -3 -3 -242 -2 -243 -243 -2 -242 -3 -3 -242 -2 -243 -705
0 -705 0 0 -235 0 -235 -1202 -2 -1203 -3 -5 -240 -5 -240 -1374 -3 c-1093 -2
-1376 0 -1383 10 -4 7 -8 118 -8 246 l0 232 -1200 0 -1200 0 -2 233 -3 232
-707 3 -708 2 0 245 0 245 -255 0 -255 0 -2 243 -3 242 -477 3 -478 2 0 230 0
230 -465 0 -465 0 -2 243 -3 242 -240 5 c-132 3 -241 7 -242 8 -2 1 -3 103 -3
226 0 195 -2 225 -16 230 -9 3 -119 6 -245 6 l-229 0 0 239 c0 209 -2 240 -16
245 -9 3 -119 6 -245 6 l-229 0 0 230 0 230 -230 0 -230 0 -2 243 -3 242 -242
3 -243 2 -2 478 -3 477 -232 3 -233 2 -2 478 -3 477 -242 3 -243 2 -2 488 -3
487 -242 3 -243 2 -2 473 -3 472 -233 3 -232 2 0 1200 0 1200 -242 2 -243 3 0
230 0 230 242 3 243 2 2 243 3 242 230 5 230 5 7 229 c5 149 11 232 18 236 6
4 111 10 233 14 121 4 225 10 229 12 4 3 8 106 8 229 l0 225 243 2 242 3 3
1443 2 1442 -245 0 -245 0 0 -1445 0 -1445 -477 -2 -478 -3 -3 -227 -2 -228
-243 -2 -242 -3 -3 -242 -2 -243 -60 0 -60 0 0 -725 0 -725 60 0 60 0 2 -952
3 -953 243 -3 242 -2 0 -720 0 -720 232 -2 233 -3 3 -477 2 -478 245 0 245 0
0 -245 0 -245 245 0 245 0 2 -477 3 -478 233 -3 232 -2 0 -245 0 -245 245 0
245 0 0 -230 0 -230 230 0 230 0 2 -242 3 -243 243 -3 242 -2 0 -229 c0 -199
2 -230 16 -235 9 -3 112 -6 230 -6 l214 0 0 -239 c0 -209 2 -240 16 -245 9 -3
126 -6 260 -6 l244 0 0 -239 c0 -209 2 -240 16 -245 9 -3 218 -6 465 -6 l449
0 0 -230 0 -230 245 0 245 0 0 -245 0 -245 490 0 490 0 2 -232 3 -233 708 -3
707 -2 0 -233 c0 -127 4 -238 8 -244 6 -10 215 -13 968 -15 l959 -3 3 -58 3
-57 1849 0 1850 0 0 60 0 60 964 0 c870 0 964 2 970 16 3 9 6 119 6 245 l0
229 705 0 705 0 0 235 0 235 480 0 480 0 2 243 3 242 243 3 242 2 0 229 0 228
53 7 c28 3 239 6 468 6 387 0 417 1 425 18 4 9 9 117 12 240 l4 222 228 0
c126 0 235 3 244 6 14 5 16 36 16 245 l0 239 229 0 c126 0 236 3 245 6 14 5
16 36 16 235 l0 229 228 2 227 3 3 243 2 242 229 0 c199 0 230 2 235 16 3 9 6
112 6 230 l0 214 239 0 c209 0 240 2 245 16 3 9 6 118 6 244 l0 228 223 4
c122 3 230 8 240 12 16 8 17 35 17 365 0 196 3 407 7 468 l6 113 241 2 241 3
3 243 2 242 230 0 230 0 2 478 3 477 233 3 232 2 0 720 0 720 243 2 242 3 3
953 2 952 60 0 60 0 0 725 0 725 -60 0 -60 0 -2 243 -3 242 -242 3 -243 2 -2
228 -3 227 -462 3 c-255 1 -464 3 -465 5 -1 1 -5 583 -9 1292 -4 710 -11 1359
-14 1443 l-7 152 -37 0 c-20 1 -117 1 -216 0 -99 0 -186 4 -192 8 -10 6 -13
308 -15 1433 l-3 1424 -242 3 -243 2 -2 723 -3 722 -240 0 -240 0 -3 -242 -2
-243 -233 -2 -232 -3 -3 -232 -2 -233 -230 0 -230 0 -2 -242 -3 -243 -242 -3
-243 -2 0 -225 c0 -209 -1 -225 -19 -234 -10 -6 -109 -10 -232 -10 -118 0
-220 -1 -226 -1 -10 0 -13 -54 -13 -235 0 -218 -1 -235 -19 -244 -10 -6 -103
-10 -212 -10 -107 0 -209 -1 -226 -1 l-33 0 -2 -227 -3 -228 -232 -3 -233 -2
-2 -243 -3 -242 -225 -3 c-164 -2 -226 -6 -232 -15 -4 -6 -8 -117 -8 -244 l0
-233 -715 0 c-592 0 -717 2 -721 14 -3 7 -8 114 -12 237 l-7 224 -957 9 -958
9 0 227 c0 126 -3 235 -6 244 -6 15 -262 16 -2804 16 l-2798 0 -6 -27 c-3 -16
-8 -121 -12 -236 -3 -114 -9 -209 -13 -211 -3 -2 -435 -7 -958 -11 l-953 -8 0
-243 0 -244 -722 2 -723 3 -3 242 -2 243 -243 2 -242 3 -3 242 -2 243 -233 2
-232 3 -3 228 -2 227 -218 0 c-156 0 -221 3 -230 12 -9 9 -12 76 -12 239 0
144 -4 230 -10 234 -6 4 -111 6 -234 5 -177 0 -225 2 -234 13 -8 9 -13 88 -14
233 l-3 219 -242 3 -243 2 -2 243 -3 242 -242 3 -243 2 -2 233 -3 232 -227 3
-228 2 -2 243 -3 242 -242 3 -243 2 0 -725z"/>
<path d="M7987 14083 c-4 -3 -7 -145 -7 -313 0 -244 -3 -310 -13 -319 -9 -7
-115 -12 -323 -13 l-309 -3 -3 -312 -2 -313 306 0 c191 0 313 -4 325 -10 19
-11 19 -39 19 -1633 0 -1249 -3 -1626 -12 -1635 -19 -19 -3251 -17 -3267 1 -7
9 -12 115 -13 323 l-3 309 -310 0 -310 0 0 -635 0 -635 1947 -5 c1331 -3 1950
-8 1957 -15 7 -7 12 -223 13 -650 l3 -640 290 -3 c160 -1 300 0 313 3 l22 5 0
634 c0 564 2 636 16 650 14 14 86 16 649 16 568 0 633 2 639 16 3 9 6 145 6
303 0 210 -3 290 -12 299 -9 9 -166 12 -644 12 -518 0 -634 2 -643 13 -8 10
-12 626 -13 2283 l-3 2269 -306 3 c-168 1 -308 -1 -312 -5z"/>
<path d="M18887 14083 c-4 -3 -7 -145 -7 -313 0 -244 -3 -310 -13 -319 -9 -7
-115 -12 -323 -13 l-309 -3 -3 -312 -2 -313 306 0 c191 0 313 -4 325 -10 19
-11 19 -39 19 -1633 0 -1249 -3 -1626 -12 -1635 -19 -19 -3251 -17 -3267 1 -7
9 -12 115 -13 323 l-3 309 -310 0 -310 0 0 -635 0 -635 1945 -5 c1070 -3 1951
-9 1958 -13 9 -6 12 -147 12 -647 l0 -640 23 -5 c12 -3 153 -4 312 -3 l290 3
5 642 c3 353 9 645 13 650 5 4 297 10 650 13 l642 5 3 299 c2 212 -1 303 -9
312 -9 12 -120 14 -644 14 -519 0 -635 2 -644 13 -8 10 -12 626 -13 2283 l-3
2269 -306 3 c-168 1 -308 -1 -312 -5z"/>
<path d="M6975 12780 l-300 -5 0 -305 0 -305 313 -3 312 -2 0 309 c0 238 -3
310 -12 312 -7 2 -148 2 -313 -1z"/>
<path d="M17576 12764 c-3 -9 -6 -141 -6 -294 0 -153 3 -285 6 -294 5 -14 43
-16 315 -16 l309 0 0 310 0 310 -309 0 c-272 0 -310 -2 -315 -16z"/>
<path d="M6025 12118 c-3 -7 -4 -148 -3 -313 l3 -300 310 0 310 0 0 310 0 310
-308 3 c-242 2 -309 0 -312 -10z"/>
<path d="M16925 12118 c-3 -7 -4 -148 -3 -313 l3 -300 310 0 310 0 0 310 0
310 -308 3 c-242 2 -309 0 -312 -10z"/>
<path d="M5377 11473 c-4 -3 -7 -145 -7 -315 l0 -308 309 0 c272 0 310 2 315
16 3 9 6 145 6 303 0 210 -3 290 -12 299 -9 9 -91 12 -308 12 -163 0 -300 -3
-303 -7z"/>
<path d="M16277 11473 c-4 -3 -7 -145 -7 -315 l0 -308 313 2 312 3 3 299 c2
212 -1 303 -9 312 -9 11 -69 14 -309 14 -163 0 -300 -3 -303 -7z"/>
<path d="M4728 10819 c-17 -9 -18 -35 -18 -309 0 -286 1 -300 19 -310 21 -11
567 -15 595 -4 14 5 16 42 16 314 0 272 -2 309 -16 314 -27 11 -578 6 -596 -5z"/>
<path d="M15640 10823 c-8 -3 -18 -11 -22 -17 -4 -6 -8 -142 -8 -303 0 -279 1
-293 19 -303 21 -11 567 -15 595 -4 14 5 16 42 16 314 l0 308 -22 6 c-29 7
-558 6 -578 -1z"/>
<path d="M11255 7347 c-3 -7 -4 -147 -3 -312 l3 -300 1290 0 1290 0 0 310 0
310 -1288 3 c-1031 2 -1289 0 -1292 -11z"/>
<path d="M10605 6698 c-3 -7 -4 -1176 -3 -2598 l3 -2585 310 0 310 0 0 2595 0
2595 -308 3 c-241 2 -309 0 -312 -10z"/>
<path d="M13865 6688 c-3 -13 -4 -1182 -3 -2598 l3 -2575 310 0 310 0 0 2595
0 2595 -307 3 -308 2 -5 -22z"/>
<path d="M11257 1473 c-4 -3 -7 -140 -7 -303 0 -217 3 -299 12 -308 9 -9 307
-12 1279 -12 697 0 1274 3 1283 6 14 5 16 43 16 315 l0 309 -1288 0 c-709 0
-1292 -3 -1295 -7z"/>
</g>
</svg>
