<?xml version="1.0" standalone="no"?>
<!DOCTYPE svg PUBLIC "-//W3C//DTD SVG 20010904//EN"
 "http://www.w3.org/TR/2001/REC-SVG-20010904/DTD/svg10.dtd">
<svg version="1.0" xmlns="http://www.w3.org/2000/svg"
 width="2160.000000pt" height="2160.000000pt" viewBox="0 0 2160.000000 2160.000000"
 preserveAspectRatio="xMidYMid meet">

<g transform="translate(0.000000,2160.000000) scale(0.100000,-0.100000)"
fill="white" stroke="none">
<path d="M19283 17358 c-6 -7 -38 -53 -71 -103 -82 -123 -153 -204 -691 -786
-69 -74 -147 -159 -175 -189 -27 -30 -100 -107 -160 -170 -61 -63 -190 -200
-286 -305 -316 -342 -429 -462 -765 -810 -289 -300 -387 -403 -622 -650 -317
-335 -438 -460 -476 -494 l-37 -34 -118 43 c-765 275 -1591 513 -2217 638
-376 75 -467 92 -905 161 -237 38 -526 70 -845 95 -1301 102 -2412 39 -3705
-209 -74 -15 -171 -33 -215 -41 -187 -33 -586 -125 -872 -200 -409 -108 -856
-248 -1397 -438 -93 -33 -134 -43 -146 -36 -10 5 -49 44 -86 87 -187 211 -349
389 -454 498 -64 66 -192 203 -285 305 -92 102 -207 226 -254 275 -47 50 -120
127 -160 170 -41 44 -127 134 -190 200 -116 120 -195 204 -325 345 -38 41
-112 120 -165 175 -91 95 -211 226 -297 325 -44 50 -102 115 -220 240 -43 47
-115 126 -159 175 -115 130 -269 299 -346 380 -99 104 -154 170 -222 268 -33
48 -63 87 -67 87 -13 0 -40 -60 -40 -88 0 -16 -7 -63 -15 -103 -8 -41 -21
-135 -29 -209 -29 -269 -56 -492 -65 -533 -5 -23 -24 -145 -41 -272 -17 -126
-43 -300 -56 -385 -14 -85 -33 -209 -44 -275 -10 -66 -34 -212 -53 -325 -20
-113 -47 -288 -62 -390 -14 -102 -32 -225 -40 -275 -8 -49 -26 -166 -40 -260
-14 -93 -52 -336 -85 -540 -60 -370 -111 -700 -155 -1000 -13 -88 -35 -234
-49 -325 -25 -161 -98 -670 -111 -780 -14 -108 -35 -137 -210 -288 -54 -48
-135 -120 -180 -161 -44 -41 -100 -93 -125 -115 -25 -23 -128 -118 -230 -211
-198 -180 -449 -429 -594 -588 l-88 -97 -6 -85 c-3 -62 -8 -85 -18 -85 -11 0
-14 -26 -14 -125 0 -116 1 -125 19 -125 16 0 21 -15 35 -112 61 -408 120 -715
196 -1033 5 -22 14 -67 21 -100 21 -113 118 -480 183 -695 109 -361 213 -656
334 -953 43 -106 94 -230 112 -277 35 -88 328 -681 444 -898 54 -100 171 -297
296 -497 45 -72 352 -527 401 -595 110 -152 315 -417 379 -490 36 -41 100
-119 143 -172 252 -314 821 -877 1277 -1264 553 -469 1019 -809 1555 -1132 83
-50 179 -108 215 -130 83 -50 161 -93 277 -152 51 -26 89 -51 85 -55 -4 -5 1
-5 12 -1 13 4 26 -2 43 -20 13 -14 30 -23 38 -21 7 3 16 -1 19 -10 4 -8 13
-13 21 -9 8 3 14 0 12 -7 -1 -7 8 -12 20 -11 12 0 20 -3 18 -7 -3 -3 17 -16
43 -27 311 -133 408 -176 412 -182 3 -4 12 -7 20 -8 17 0 143 -51 150 -61 10
-12 82 -41 90 -36 4 3 10 1 12 -3 3 -9 103 -48 193 -76 180 -56 315 -100 345
-113 19 -8 44 -19 55 -23 48 -20 216 -73 270 -84 6 -2 29 -8 53 -15 50 -14
586 -138 652 -150 173 -33 959 -162 1065 -175 72 -9 245 -25 385 -36 237 -19
545 -54 598 -67 12 -3 22 -9 22 -14 0 -5 104 -9 235 -9 199 0 235 2 235 15 0
8 16 18 38 24 32 9 382 38 677 56 245 16 626 61 920 111 420 70 1083 224 1367
317 296 98 680 232 733 257 33 16 94 42 135 58 41 17 111 47 155 67 44 20 130
57 190 81 174 72 558 267 765 389 58 34 173 102 255 150 390 229 911 588 1275
879 485 388 1085 966 1440 1386 34 41 107 125 161 185 114 128 159 185 433
551 249 332 379 524 516 764 24 41 78 134 120 205 147 247 246 438 392 755
261 564 347 775 507 1244 124 362 275 957 335 1316 15 85 35 205 46 265 18
100 55 347 95 630 25 174 25 175 40 175 24 0 19 57 -5 63 -18 5 -20 14 -20
107 l0 102 -89 101 c-187 215 -678 675 -1085 1017 -195 164 -220 195 -235 287
-5 37 -24 156 -41 263 -16 107 -37 242 -45 300 -8 58 -37 260 -65 450 -28 190
-66 455 -86 590 -19 135 -61 427 -93 650 -33 223 -69 475 -81 560 -11 85 -36
259 -55 385 -19 127 -51 349 -70 495 -20 146 -59 416 -86 600 -74 503 -160
1125 -188 1370 -13 114 -20 146 -32 148 -9 2 -21 -3 -26 -10z m-12253 -8868
c182 -30 252 -55 425 -150 277 -152 476 -405 541 -687 14 -57 19 -120 19 -233
0 -181 -14 -256 -80 -419 -75 -187 -147 -295 -299 -447 -153 -152 -324 -258
-511 -317 -161 -50 -237 -61 -445 -61 -169 -1 -209 2 -299 22 -198 45 -370
123 -506 233 -80 64 -231 219 -292 299 -81 109 -157 282 -182 416 -30 159 -21
377 21 512 48 157 150 331 257 440 126 128 324 256 512 330 81 32 228 67 349
82 110 13 347 4 490 -20z m8200 1 c135 -34 241 -72 234 -83 -4 -6 2 -8 17 -3
13 4 21 4 17 0 -4 -4 34 -29 85 -54 282 -141 521 -428 598 -721 30 -112 32
-318 6 -428 -38 -158 -90 -277 -182 -417 -74 -113 -170 -212 -291 -304 -188
-141 -358 -215 -609 -267 -120 -24 -143 -26 -295 -21 -167 6 -262 22 -395 65
-394 130 -744 491 -861 887 -22 73 -27 117 -31 236 -4 91 -1 173 6 215 42 244
217 512 434 665 151 107 361 197 542 233 122 23 132 24 395 21 211 -2 257 -6
330 -24z m-4160 -2258 c74 -13 139 -28 145 -33 5 -4 48 -22 95 -38 160 -55
290 -134 382 -229 70 -74 99 -130 100 -192 0 -57 -15 -89 -119 -248 -229 -353
-363 -576 -363 -607 0 -49 45 -217 79 -293 17 -39 63 -126 102 -194 122 -213
219 -339 385 -499 263 -254 592 -448 899 -531 410 -111 756 -113 1170 -9 197
50 301 88 470 175 229 117 436 262 650 454 43 39 83 71 87 71 16 0 7 -58 -14
-86 -76 -102 -304 -312 -484 -446 -320 -237 -760 -419 -1218 -502 -224 -41
-329 -48 -656 -44 -287 4 -312 6 -430 32 -369 81 -633 183 -848 329 -161 109
-282 209 -402 333 -117 121 -162 177 -269 337 -84 125 -79 125 -143 8 -81
-148 -161 -254 -298 -392 -147 -148 -241 -222 -408 -322 -297 -179 -554 -267
-911 -312 -194 -25 -734 -17 -906 13 -302 53 -594 140 -800 238 -90 42 -336
181 -405 227 -153 103 -361 285 -515 453 -115 125 -255 319 -247 343 3 8 72
-55 181 -167 279 -286 462 -426 740 -566 193 -97 313 -146 428 -176 399 -101
825 -97 1211 11 526 148 980 520 1247 1021 89 169 173 419 160 479 -4 15 -43
86 -89 156 -191 298 -357 576 -376 632 -37 111 -19 183 67 269 191 190 479
306 838 336 103 8 337 -7 465 -31z m-5015 -5093 c3 -6 -1 -7 -9 -4 -18 7 -21
14 -7 14 6 0 13 -4 16 -10z"/>
</g>
</svg>
