<?xml version="1.0" standalone="no"?>
<!DOCTYPE svg PUBLIC "-//W3C//DTD SVG 20010904//EN"
 "http://www.w3.org/TR/2001/REC-SVG-20010904/DTD/svg10.dtd">
<svg version="1.0" xmlns="http://www.w3.org/2000/svg"
 width="1024.000000pt" height="1024.000000pt" viewBox="0 0 1024.000000 1024.000000"
 preserveAspectRatio="xMidYMid meet">

<g transform="translate(0.000000,1024.000000) scale(0.100000,-0.100000)"
fill="#000000" stroke="none">
<path d="M1030 7985 l0 -295 -95 0 -95 0 0 -585 0 -585 -100 0 -100 0 0 -590
0 -590 100 0 100 0 0 590 0 590 95 0 95 0 0 585 0 585 94 0 c69 0 94 3 93 13
0 6 1 51 1 100 l2 87 100 0 100 0 0 -100 0 -100 100 0 100 0 2 -192 3 -193 92
-3 92 -3 3 -97 3 -97 103 -3 102 -3 0 -94 0 -95 95 0 95 0 0 -100 0 -100 95 0
95 0 0 -95 0 -95 395 0 395 0 0 95 0 95 388 2 387 3 3 98 3 97 1149 0 1149 0
3 -97 3 -98 393 -3 392 -2 0 -95 0 -95 390 0 390 0 0 95 0 95 95 0 95 0 0 100
0 100 100 0 100 0 0 95 0 94 98 3 97 3 3 98 3 97 93 0 94 0 7 195 7 195 94 0
94 0 0 100 0 100 100 0 100 0 0 -100 0 -100 95 0 95 0 0 -585 0 -585 93 0 94
0 6 -152 c4 -83 7 -348 7 -590 l0 -438 100 0 100 0 0 -95 0 -95 95 0 95 0 0
-100 0 -100 95 0 95 0 0 -100 0 -100 100 0 100 0 0 -95 0 -95 -100 0 -100 0 0
-490 0 -490 -95 0 -95 0 0 -195 0 -195 -95 0 -95 0 -2 -197 -3 -198 -96 -3
-97 -3 -7 -194 -7 -195 -94 0 -94 0 0 -195 0 -195 -100 0 -100 0 0 -100 0
-100 -95 0 -95 0 0 -95 0 -95 -95 0 -95 0 0 -100 0 -100 -100 0 -100 0 0 -95
0 -95 -100 0 -100 0 0 -100 0 -100 -195 0 -195 0 0 -95 0 -95 -195 0 -195 0 0
-100 0 -100 -100 0 -100 0 0 -100 0 -100 -290 0 -290 0 0 -95 0 -95 -490 0
-490 0 0 -100 0 -100 -565 0 -565 0 0 100 0 100 -490 0 -490 0 0 95 0 95 -290
0 -290 0 0 100 0 100 -105 0 -105 0 0 100 0 100 -195 0 -195 0 0 95 0 95 -190
0 -190 0 0 100 0 100 -100 0 -100 0 0 95 0 95 -100 0 -100 0 0 100 0 100 -100
0 -100 0 0 95 0 95 -95 0 -95 0 0 100 0 100 -100 0 -100 0 0 195 0 195 -95 0
-95 0 0 195 0 195 -100 0 -100 0 0 200 0 200 -100 0 -100 0 0 195 0 195 -95 0
-95 0 0 490 0 490 -100 0 -100 0 0 95 0 95 100 0 100 0 0 100 0 100 95 0 94 0
3 98 3 97 98 3 97 3 0 94 0 95 -195 0 -195 0 0 -95 0 -95 -100 0 -100 0 0
-100 0 -100 -25 0 -25 0 0 -295 0 -295 25 0 25 0 0 -390 0 -390 100 0 100 0 0
-295 0 -295 95 0 95 0 0 -195 0 -195 100 0 100 0 0 -100 0 -100 100 0 100 0 0
-195 0 -195 95 0 95 0 0 -100 0 -100 100 0 100 0 0 -95 0 -95 95 0 95 0 0
-100 0 -100 100 0 100 0 0 -95 0 -95 95 0 95 0 0 -100 0 -100 105 0 105 0 0
-100 0 -100 190 0 190 0 0 -95 0 -95 100 0 100 0 0 -100 0 -100 200 0 200 0 0
-95 0 -95 290 0 290 0 0 -100 0 -100 395 0 395 0 0 -25 0 -25 755 0 755 0 0
25 0 25 395 0 395 0 0 100 0 100 290 0 290 0 0 95 0 95 195 0 195 0 0 100 0
100 100 0 100 0 0 95 0 95 178 1 c97 1 185 1 195 0 15 -2 17 9 17 98 l0 101
100 0 100 0 0 100 0 100 100 0 100 0 0 95 0 95 95 0 95 0 0 100 0 100 95 0 95
0 0 95 0 95 100 0 100 0 0 100 0 100 101 0 c89 0 100 2 98 17 -1 10 -1 98 0
196 l1 177 100 0 100 0 0 100 0 100 95 0 95 0 0 195 0 195 95 0 95 0 0 295 0
295 100 0 100 0 0 390 0 390 25 0 25 0 0 295 0 295 -25 0 -25 0 0 100 0 100
-100 0 -100 0 0 95 0 95 -190 0 -190 0 -2 198 c-2 108 -1 283 0 387 2 105 1
281 -3 393 l-7 202 -94 0 -94 0 0 585 0 585 -100 0 -100 0 0 295 0 295 -100 0
-100 0 0 -100 0 -100 -95 0 -95 0 0 -95 0 -95 -95 0 -95 0 0 -100 0 -100 -100
0 -100 0 0 -95 0 -95 -100 0 -100 0 0 -100 0 -100 -100 0 -100 0 0 -95 0 -95
-95 0 -95 0 0 -100 0 -100 -95 0 -95 0 0 -100 0 -100 -295 0 -294 0 -3 98 -3
97 -392 3 -393 2 0 100 0 100 -1145 0 -1144 0 -3 -97 -3 -98 -392 -3 -393 -2
0 -100 0 -100 -295 0 -295 0 0 100 0 100 -100 0 -100 0 0 100 0 100 -95 0 -95
0 0 95 0 95 -95 0 -95 0 0 100 0 100 -100 0 -100 0 0 95 0 95 -100 0 -100 0 0
100 0 100 -100 0 -100 0 0 95 0 95 -95 0 -95 0 0 100 0 100 -100 0 -100 0 0
-295z"/>
<path d="M2998 4070 l3 -100 195 0 194 0 0 -100 0 -100 190 0 190 0 0 -290 0
-290 -190 0 -190 0 0 -100 0 -100 -194 0 -195 0 -3 -100 -3 -100 198 0 197 0
0 100 0 100 190 0 190 0 0 100 0 100 100 0 100 0 0 290 0 290 -100 0 -100 0 0
100 0 100 -190 0 -190 0 0 100 0 100 -197 0 -198 0 3 -100z"/>
<path d="M6860 4070 l0 -100 -195 0 -195 0 0 -100 0 -100 -100 0 -100 0 0
-290 0 -290 100 0 100 0 0 -100 0 -100 195 0 195 0 0 -100 0 -100 195 0 195 0
0 100 0 100 200 0 200 0 0 100 0 100 95 0 95 0 0 290 0 290 -95 0 -95 0 0 100
0 100 -200 0 -200 0 0 100 0 100 -195 0 -195 0 0 -100z m392 -197 l3 -98 98
-3 97 -3 0 -94 0 -95 100 0 100 0 0 -100 0 -100 -100 0 -100 0 0 -95 0 -94
-97 -3 -98 -3 -3 -97 -3 -98 -194 0 -195 0 0 100 0 100 -195 0 -195 0 0 290 0
290 195 0 195 0 0 100 0 100 195 0 194 0 3 -97z"/>
<path d="M2600 3870 l0 -100 -100 0 -100 0 0 -193 c0 -107 3 -197 6 -200 4 -4
6 -47 5 -97 l-2 -90 95 0 96 0 0 -100 0 -100 195 0 196 0 -3 98 -3 97 -97 3
-98 3 0 94 0 95 -95 0 -95 0 0 100 0 100 95 0 95 0 0 95 0 94 98 3 97 3 3 98
3 97 -196 0 -195 0 0 -100z"/>
<path d="M4960 3090 l0 -100 165 0 165 0 0 100 0 100 -165 0 -165 0 0 -100z"/>
<path d="M4560 2695 l0 -295 95 0 95 0 0 -95 0 -95 -95 0 -95 0 0 -200 0 -200
-195 0 -195 0 0 -95 0 -95 -295 0 -295 0 0 95 0 95 -195 0 -195 0 0 200 0 200
-197 -2 -198 -3 -3 -97 -3 -98 101 0 100 0 0 -100 0 -100 100 0 100 0 0 -95 0
-95 100 0 100 0 0 -100 0 -100 195 0 195 0 0 -95 0 -95 295 0 296 0 -3 93 -3
92 -97 3 -98 3 0 99 0 100 100 0 100 0 0 -100 0 -100 195 0 195 0 0 100 0 100
365 0 365 0 0 -100 0 -100 195 0 195 0 0 -95 0 -95 295 0 295 0 0 95 0 95 195
0 195 0 0 100 0 100 100 0 100 0 0 95 0 95 95 0 95 0 0 100 0 100 100 0 100 0
0 100 0 100 -200 0 -200 0 0 -200 0 -200 -190 0 -190 0 0 -95 0 -95 -300 0
-300 0 0 95 0 95 -190 0 -190 0 0 200 0 200 -100 0 -100 0 0 95 0 95 100 0
100 0 0 153 c0 83 -3 216 -7 295 l-6 142 -189 0 -188 0 0 -100 0 -100 95 0 95
0 0 -95 0 -95 -93 0 -94 0 -6 -147 c-4 -82 -4 -214 0 -295 l6 -148 -178 0
-178 0 6 151 c4 83 4 216 0 295 l-6 144 -99 0 -98 0 0 95 0 95 100 0 100 0 0
100 0 100 -195 0 -195 0 0 -295z m390 -785 l0 -100 -100 0 -100 0 0 -95 0 -95
-95 0 -95 0 0 95 0 95 95 0 95 0 0 100 0 100 100 0 100 0 0 -100z m540 0 l0
-100 100 0 100 0 0 -95 0 -95 -100 0 -100 0 0 95 0 95 -95 0 -95 0 0 100 0
100 95 0 95 0 0 -100z m580 -390 l0 -100 -95 0 -95 0 0 100 0 100 95 0 95 0 0
-100z"/>
</g>
</svg>
